<mxfile host="app.diagrams.net" modified="2020-10-13T09:03:51.634Z" agent="5.0 (Windows NT 10.0; Win64; x64) AppleWebKit/537.36 (KHTML, like Gecko) Chrome/83.0.4103.116 Safari/537.36 Edg/83.0.478.61" etag="Ax-utB6CUr2wEaGleRzH" version="13.7.9" type="github">
  <diagram id="Q0f7LRrN739baXELMbWU" name="Page-1">
    <mxGraphModel dx="1360" dy="802" grid="1" gridSize="10" guides="1" tooltips="1" connect="1" arrows="1" fold="1" page="1" pageScale="1" pageWidth="850" pageHeight="1100" math="0" shadow="0">
      <root>
        <mxCell id="0" />
        <mxCell id="1" parent="0" />
        <mxCell id="J4rkRlu3v2zTEco57VOW-1" value="create" style="rounded=0;whiteSpace=wrap;html=1;" vertex="1" parent="1">
          <mxGeometry x="200" y="80" width="200" height="320" as="geometry" />
        </mxCell>
        <mxCell id="J4rkRlu3v2zTEco57VOW-2" value="isFirstNumberLarger" style="rounded=0;whiteSpace=wrap;html=1;" vertex="1" parent="1">
          <mxGeometry x="1040" y="80" width="160" height="80" as="geometry" />
        </mxCell>
        <mxCell id="J4rkRlu3v2zTEco57VOW-3" value="" style="endArrow=classic;html=1;" edge="1" parent="1">
          <mxGeometry width="50" height="50" relative="1" as="geometry">
            <mxPoint x="40" y="100" as="sourcePoint" />
            <mxPoint x="180" y="100" as="targetPoint" />
          </mxGeometry>
        </mxCell>
        <mxCell id="J4rkRlu3v2zTEco57VOW-4" value="" style="endArrow=classic;html=1;" edge="1" parent="1">
          <mxGeometry width="50" height="50" relative="1" as="geometry">
            <mxPoint x="180" y="380" as="sourcePoint" />
            <mxPoint x="40" y="380" as="targetPoint" />
          </mxGeometry>
        </mxCell>
        <mxCell id="J4rkRlu3v2zTEco57VOW-7" value="startNum: int&lt;br&gt;endNum: int" style="text;html=1;strokeColor=none;fillColor=none;align=center;verticalAlign=middle;whiteSpace=wrap;rounded=0;" vertex="1" parent="1">
          <mxGeometry x="30" y="60" width="160" height="40" as="geometry" />
        </mxCell>
        <mxCell id="J4rkRlu3v2zTEco57VOW-8" value="multiplicationTable: String" style="text;html=1;strokeColor=none;fillColor=none;align=center;verticalAlign=middle;whiteSpace=wrap;rounded=0;" vertex="1" parent="1">
          <mxGeometry x="10" y="360" width="200" height="20" as="geometry" />
        </mxCell>
        <mxCell id="J4rkRlu3v2zTEco57VOW-9" value="" style="endArrow=classic;html=1;" edge="1" parent="1">
          <mxGeometry width="50" height="50" relative="1" as="geometry">
            <mxPoint x="815" y="100" as="sourcePoint" />
            <mxPoint x="1015" y="100" as="targetPoint" />
          </mxGeometry>
        </mxCell>
        <mxCell id="J4rkRlu3v2zTEco57VOW-10" value="num1: int&lt;br&gt;num2: int" style="text;html=1;strokeColor=none;fillColor=none;align=center;verticalAlign=middle;whiteSpace=wrap;rounded=0;" vertex="1" parent="1">
          <mxGeometry x="820" y="60" width="160" height="40" as="geometry" />
        </mxCell>
        <mxCell id="J4rkRlu3v2zTEco57VOW-11" value="isLarger: boolean" style="text;html=1;strokeColor=none;fillColor=none;align=center;verticalAlign=middle;whiteSpace=wrap;rounded=0;" vertex="1" parent="1">
          <mxGeometry x="845" y="120" width="120" height="20" as="geometry" />
        </mxCell>
        <mxCell id="J4rkRlu3v2zTEco57VOW-12" value="" style="endArrow=classic;html=1;" edge="1" parent="1">
          <mxGeometry width="50" height="50" relative="1" as="geometry">
            <mxPoint x="1015" y="140" as="sourcePoint" />
            <mxPoint x="815" y="140" as="targetPoint" />
          </mxGeometry>
        </mxCell>
        <mxCell id="J4rkRlu3v2zTEco57VOW-13" value="isNumberWithinRange" style="rounded=0;whiteSpace=wrap;html=1;" vertex="1" parent="1">
          <mxGeometry x="1040" y="200" width="160" height="80" as="geometry" />
        </mxCell>
        <mxCell id="J4rkRlu3v2zTEco57VOW-14" value="number: int&lt;br&gt;lowerLimit: int&lt;br&gt;upperLimit: int" style="text;html=1;strokeColor=none;fillColor=none;align=center;verticalAlign=middle;whiteSpace=wrap;rounded=0;" vertex="1" parent="1">
          <mxGeometry x="800" y="170" width="240" height="50" as="geometry" />
        </mxCell>
        <mxCell id="J4rkRlu3v2zTEco57VOW-16" value="" style="endArrow=classic;html=1;" edge="1" parent="1">
          <mxGeometry width="50" height="50" relative="1" as="geometry">
            <mxPoint x="1015" y="260" as="sourcePoint" />
            <mxPoint x="815" y="260" as="targetPoint" />
          </mxGeometry>
        </mxCell>
        <mxCell id="J4rkRlu3v2zTEco57VOW-17" value="isWithinRange: boolean" style="text;html=1;strokeColor=none;fillColor=none;align=center;verticalAlign=middle;whiteSpace=wrap;rounded=0;" vertex="1" parent="1">
          <mxGeometry x="840" y="240" width="150" height="20" as="geometry" />
        </mxCell>
        <mxCell id="J4rkRlu3v2zTEco57VOW-18" value="generateMultiplicationTable" style="rounded=0;whiteSpace=wrap;html=1;" vertex="1" parent="1">
          <mxGeometry x="640" y="320" width="160" height="80" as="geometry" />
        </mxCell>
        <mxCell id="J4rkRlu3v2zTEco57VOW-19" value="startNum: int&lt;br&gt;endNum: int" style="text;html=1;strokeColor=none;fillColor=none;align=center;verticalAlign=middle;whiteSpace=wrap;rounded=0;" vertex="1" parent="1">
          <mxGeometry x="475" y="310" width="100" height="20" as="geometry" />
        </mxCell>
        <mxCell id="J4rkRlu3v2zTEco57VOW-20" value="multiplicationTable: String" style="text;html=1;strokeColor=none;fillColor=none;align=center;verticalAlign=middle;whiteSpace=wrap;rounded=0;" vertex="1" parent="1">
          <mxGeometry x="450" y="360" width="150" height="20" as="geometry" />
        </mxCell>
        <mxCell id="J4rkRlu3v2zTEco57VOW-21" value="" style="endArrow=classic;html=1;" edge="1" parent="1">
          <mxGeometry width="50" height="50" relative="1" as="geometry">
            <mxPoint x="420" y="340" as="sourcePoint" />
            <mxPoint x="620" y="340" as="targetPoint" />
          </mxGeometry>
        </mxCell>
        <mxCell id="J4rkRlu3v2zTEco57VOW-22" style="edgeStyle=orthogonalEdgeStyle;rounded=0;orthogonalLoop=1;jettySize=auto;html=1;exitX=0.5;exitY=1;exitDx=0;exitDy=0;" edge="1" parent="1" source="J4rkRlu3v2zTEco57VOW-19" target="J4rkRlu3v2zTEco57VOW-19">
          <mxGeometry relative="1" as="geometry" />
        </mxCell>
        <mxCell id="J4rkRlu3v2zTEco57VOW-23" value="" style="endArrow=classic;html=1;" edge="1" parent="1">
          <mxGeometry width="50" height="50" relative="1" as="geometry">
            <mxPoint x="625" y="380" as="sourcePoint" />
            <mxPoint x="425" y="380" as="targetPoint" />
          </mxGeometry>
        </mxCell>
        <mxCell id="J4rkRlu3v2zTEco57VOW-24" value="getMultiplicationLine" style="rounded=0;whiteSpace=wrap;html=1;" vertex="1" parent="1">
          <mxGeometry x="1040" y="320" width="160" height="80" as="geometry" />
        </mxCell>
        <mxCell id="J4rkRlu3v2zTEco57VOW-25" value="" style="endArrow=classic;html=1;" edge="1" parent="1">
          <mxGeometry width="50" height="50" relative="1" as="geometry">
            <mxPoint x="820" y="340" as="sourcePoint" />
            <mxPoint x="1020" y="340" as="targetPoint" />
          </mxGeometry>
        </mxCell>
        <mxCell id="J4rkRlu3v2zTEco57VOW-26" value="num1: int&lt;br&gt;num2: int" style="text;html=1;strokeColor=none;fillColor=none;align=center;verticalAlign=middle;whiteSpace=wrap;rounded=0;" vertex="1" parent="1">
          <mxGeometry x="845" y="300" width="150" height="40" as="geometry" />
        </mxCell>
        <mxCell id="J4rkRlu3v2zTEco57VOW-27" value="multiplicationLine: String" style="text;html=1;strokeColor=none;fillColor=none;align=center;verticalAlign=middle;whiteSpace=wrap;rounded=0;" vertex="1" parent="1">
          <mxGeometry x="850" y="360" width="150" height="20" as="geometry" />
        </mxCell>
        <mxCell id="J4rkRlu3v2zTEco57VOW-28" value="" style="endArrow=classic;html=1;" edge="1" parent="1">
          <mxGeometry width="50" height="50" relative="1" as="geometry">
            <mxPoint x="1020" y="380" as="sourcePoint" />
            <mxPoint x="820" y="380" as="targetPoint" />
          </mxGeometry>
        </mxCell>
        <mxCell id="J4rkRlu3v2zTEco57VOW-36" value="" style="endArrow=classic;html=1;" edge="1" parent="1">
          <mxGeometry width="50" height="50" relative="1" as="geometry">
            <mxPoint x="815" y="220" as="sourcePoint" />
            <mxPoint x="1015" y="220" as="targetPoint" />
          </mxGeometry>
        </mxCell>
        <mxCell id="J4rkRlu3v2zTEco57VOW-38" value="validateInput" style="rounded=0;whiteSpace=wrap;html=1;" vertex="1" parent="1">
          <mxGeometry x="640" y="80" width="160" height="200" as="geometry" />
        </mxCell>
        <mxCell id="J4rkRlu3v2zTEco57VOW-39" value="startNum: int&lt;br&gt;endNum: int" style="text;html=1;strokeColor=none;fillColor=none;align=center;verticalAlign=middle;whiteSpace=wrap;rounded=0;" vertex="1" parent="1">
          <mxGeometry x="440" y="60" width="160" height="40" as="geometry" />
        </mxCell>
        <mxCell id="J4rkRlu3v2zTEco57VOW-40" value="" style="endArrow=classic;html=1;" edge="1" parent="1">
          <mxGeometry width="50" height="50" relative="1" as="geometry">
            <mxPoint x="420" y="99" as="sourcePoint" />
            <mxPoint x="620" y="99" as="targetPoint" />
          </mxGeometry>
        </mxCell>
        <mxCell id="J4rkRlu3v2zTEco57VOW-41" value="" style="endArrow=classic;html=1;" edge="1" parent="1">
          <mxGeometry width="50" height="50" relative="1" as="geometry">
            <mxPoint x="620" y="260" as="sourcePoint" />
            <mxPoint x="420" y="260" as="targetPoint" />
          </mxGeometry>
        </mxCell>
        <mxCell id="J4rkRlu3v2zTEco57VOW-42" value="isValid: boolean" style="text;html=1;strokeColor=none;fillColor=none;align=center;verticalAlign=middle;whiteSpace=wrap;rounded=0;" vertex="1" parent="1">
          <mxGeometry x="450" y="240" width="150" height="20" as="geometry" />
        </mxCell>
        <mxCell id="J4rkRlu3v2zTEco57VOW-43" value="getMultiplicationExpression" style="rounded=0;whiteSpace=wrap;html=1;fontStyle=0" vertex="1" parent="1">
          <mxGeometry x="1440" y="320" width="160" height="80" as="geometry" />
        </mxCell>
        <mxCell id="J4rkRlu3v2zTEco57VOW-44" value="" style="endArrow=classic;html=1;fontStyle=0" edge="1" parent="1">
          <mxGeometry width="50" height="50" relative="1" as="geometry">
            <mxPoint x="1220" y="340" as="sourcePoint" />
            <mxPoint x="1420" y="340" as="targetPoint" />
          </mxGeometry>
        </mxCell>
        <mxCell id="J4rkRlu3v2zTEco57VOW-45" value="multiplicand: int&lt;br&gt;multiplier: int" style="text;html=1;strokeColor=none;fillColor=none;align=center;verticalAlign=middle;whiteSpace=wrap;rounded=0;fontStyle=0" vertex="1" parent="1">
          <mxGeometry x="1245" y="300" width="150" height="40" as="geometry" />
        </mxCell>
        <mxCell id="J4rkRlu3v2zTEco57VOW-46" value="multiplicationExpression: String" style="text;html=1;strokeColor=none;fillColor=none;align=center;verticalAlign=middle;whiteSpace=wrap;rounded=0;fontStyle=0" vertex="1" parent="1">
          <mxGeometry x="1250" y="360" width="170" height="20" as="geometry" />
        </mxCell>
        <mxCell id="J4rkRlu3v2zTEco57VOW-47" value="" style="endArrow=classic;html=1;fontStyle=0" edge="1" parent="1">
          <mxGeometry width="50" height="50" relative="1" as="geometry">
            <mxPoint x="1420" y="380" as="sourcePoint" />
            <mxPoint x="1220" y="380" as="targetPoint" />
          </mxGeometry>
        </mxCell>
        <mxCell id="J4rkRlu3v2zTEco57VOW-48" value="1" style="rounded=0;whiteSpace=wrap;html=1;" vertex="1" parent="1">
          <mxGeometry x="100" y="640" width="200" height="80" as="geometry" />
        </mxCell>
        <mxCell id="J4rkRlu3v2zTEco57VOW-49" value="1" style="rounded=0;whiteSpace=wrap;html=1;" vertex="1" parent="1">
          <mxGeometry x="100" y="730" width="200" height="80" as="geometry" />
        </mxCell>
        <mxCell id="J4rkRlu3v2zTEco57VOW-50" value="" style="rounded=0;whiteSpace=wrap;html=1;" vertex="1" parent="1">
          <mxGeometry x="100" y="820" width="200" height="80" as="geometry" />
        </mxCell>
        <mxCell id="J4rkRlu3v2zTEco57VOW-51" value="" style="rounded=0;whiteSpace=wrap;html=1;" vertex="1" parent="1">
          <mxGeometry x="100" y="910" width="200" height="80" as="geometry" />
        </mxCell>
        <mxCell id="J4rkRlu3v2zTEco57VOW-52" value="printMultiplicationTable" style="text;html=1;strokeColor=none;fillColor=none;align=center;verticalAlign=middle;whiteSpace=wrap;rounded=0;" vertex="1" parent="1">
          <mxGeometry x="120" y="600" width="150" height="40" as="geometry" />
        </mxCell>
        <mxCell id="J4rkRlu3v2zTEco57VOW-55" value="2" style="rounded=0;whiteSpace=wrap;html=1;" vertex="1" parent="1">
          <mxGeometry x="380" y="640" width="200" height="80" as="geometry" />
        </mxCell>
        <mxCell id="J4rkRlu3v2zTEco57VOW-56" value="2" style="rounded=0;whiteSpace=wrap;html=1;" vertex="1" parent="1">
          <mxGeometry x="380" y="730" width="200" height="80" as="geometry" />
        </mxCell>
        <mxCell id="J4rkRlu3v2zTEco57VOW-57" value="" style="rounded=0;whiteSpace=wrap;html=1;" vertex="1" parent="1">
          <mxGeometry x="380" y="820" width="200" height="80" as="geometry" />
        </mxCell>
        <mxCell id="J4rkRlu3v2zTEco57VOW-58" value="" style="rounded=0;whiteSpace=wrap;html=1;" vertex="1" parent="1">
          <mxGeometry x="380" y="910" width="200" height="80" as="geometry" />
        </mxCell>
        <mxCell id="J4rkRlu3v2zTEco57VOW-59" value="validateInput" style="text;html=1;strokeColor=none;fillColor=none;align=center;verticalAlign=middle;whiteSpace=wrap;rounded=0;" vertex="1" parent="1">
          <mxGeometry x="400" y="600" width="150" height="40" as="geometry" />
        </mxCell>
        <mxCell id="J4rkRlu3v2zTEco57VOW-60" value="5" style="rounded=0;whiteSpace=wrap;html=1;" vertex="1" parent="1">
          <mxGeometry x="380" y="1040" width="200" height="80" as="geometry" />
        </mxCell>
        <mxCell id="J4rkRlu3v2zTEco57VOW-61" value="8" style="rounded=0;whiteSpace=wrap;html=1;" vertex="1" parent="1">
          <mxGeometry x="380" y="1130" width="200" height="80" as="geometry" />
        </mxCell>
        <mxCell id="J4rkRlu3v2zTEco57VOW-62" value="I changed my approach; changed the holder of multiplication line from string builder to string array" style="rounded=0;whiteSpace=wrap;html=1;" vertex="1" parent="1">
          <mxGeometry x="380" y="1220" width="200" height="80" as="geometry" />
        </mxCell>
        <mxCell id="J4rkRlu3v2zTEco57VOW-63" value="Next time I should spend more time on the planning phase" style="rounded=0;whiteSpace=wrap;html=1;" vertex="1" parent="1">
          <mxGeometry x="380" y="1310" width="200" height="80" as="geometry" />
        </mxCell>
        <mxCell id="J4rkRlu3v2zTEco57VOW-64" value="generateMultiplicationTable" style="text;html=1;strokeColor=none;fillColor=none;align=center;verticalAlign=middle;whiteSpace=wrap;rounded=0;" vertex="1" parent="1">
          <mxGeometry x="400" y="1000" width="150" height="40" as="geometry" />
        </mxCell>
        <mxCell id="J4rkRlu3v2zTEco57VOW-69" value="3" style="rounded=0;whiteSpace=wrap;html=1;" vertex="1" parent="1">
          <mxGeometry x="660" y="1040" width="200" height="80" as="geometry" />
        </mxCell>
        <mxCell id="J4rkRlu3v2zTEco57VOW-70" value="3" style="rounded=0;whiteSpace=wrap;html=1;" vertex="1" parent="1">
          <mxGeometry x="660" y="1130" width="200" height="80" as="geometry" />
        </mxCell>
        <mxCell id="J4rkRlu3v2zTEco57VOW-71" value="" style="rounded=0;whiteSpace=wrap;html=1;" vertex="1" parent="1">
          <mxGeometry x="660" y="1220" width="200" height="80" as="geometry" />
        </mxCell>
        <mxCell id="J4rkRlu3v2zTEco57VOW-72" value="" style="rounded=0;whiteSpace=wrap;html=1;" vertex="1" parent="1">
          <mxGeometry x="660" y="1310" width="200" height="80" as="geometry" />
        </mxCell>
        <mxCell id="J4rkRlu3v2zTEco57VOW-73" value="generateMultiplicationLine" style="text;html=1;strokeColor=none;fillColor=none;align=center;verticalAlign=middle;whiteSpace=wrap;rounded=0;" vertex="1" parent="1">
          <mxGeometry x="680" y="1000" width="150" height="40" as="geometry" />
        </mxCell>
        <mxCell id="J4rkRlu3v2zTEco57VOW-74" value="2" style="rounded=0;whiteSpace=wrap;html=1;" vertex="1" parent="1">
          <mxGeometry x="940" y="1040" width="200" height="80" as="geometry" />
        </mxCell>
        <mxCell id="J4rkRlu3v2zTEco57VOW-75" value="4" style="rounded=0;whiteSpace=wrap;html=1;" vertex="1" parent="1">
          <mxGeometry x="940" y="1130" width="200" height="80" as="geometry" />
        </mxCell>
        <mxCell id="J4rkRlu3v2zTEco57VOW-76" value="Encountered discrepancies in the delimiter due to copy paste; though after applying the fix, the output is now correct but the test is still failing. It will be further checked by Sasa" style="rounded=0;whiteSpace=wrap;html=1;" vertex="1" parent="1">
          <mxGeometry x="940" y="1220" width="200" height="80" as="geometry" />
        </mxCell>
        <mxCell id="J4rkRlu3v2zTEco57VOW-77" value="I&#39;ll just keep it in mind for next time" style="rounded=0;whiteSpace=wrap;html=1;" vertex="1" parent="1">
          <mxGeometry x="940" y="1310" width="200" height="80" as="geometry" />
        </mxCell>
        <mxCell id="J4rkRlu3v2zTEco57VOW-78" value="generateMultiplicationExpression" style="text;html=1;strokeColor=none;fillColor=none;align=center;verticalAlign=middle;whiteSpace=wrap;rounded=0;" vertex="1" parent="1">
          <mxGeometry x="960" y="1000" width="150" height="40" as="geometry" />
        </mxCell>
        <mxCell id="J4rkRlu3v2zTEco57VOW-79" value="1" style="rounded=0;whiteSpace=wrap;html=1;" vertex="1" parent="1">
          <mxGeometry x="660" y="640" width="200" height="80" as="geometry" />
        </mxCell>
        <mxCell id="J4rkRlu3v2zTEco57VOW-80" value="1" style="rounded=0;whiteSpace=wrap;html=1;" vertex="1" parent="1">
          <mxGeometry x="660" y="730" width="200" height="80" as="geometry" />
        </mxCell>
        <mxCell id="J4rkRlu3v2zTEco57VOW-81" value="" style="rounded=0;whiteSpace=wrap;html=1;" vertex="1" parent="1">
          <mxGeometry x="660" y="820" width="200" height="80" as="geometry" />
        </mxCell>
        <mxCell id="J4rkRlu3v2zTEco57VOW-82" value="" style="rounded=0;whiteSpace=wrap;html=1;" vertex="1" parent="1">
          <mxGeometry x="660" y="910" width="200" height="80" as="geometry" />
        </mxCell>
        <mxCell id="J4rkRlu3v2zTEco57VOW-83" value="isFirstNumberLarger" style="text;html=1;strokeColor=none;fillColor=none;align=center;verticalAlign=middle;whiteSpace=wrap;rounded=0;" vertex="1" parent="1">
          <mxGeometry x="680" y="600" width="150" height="40" as="geometry" />
        </mxCell>
        <mxCell id="J4rkRlu3v2zTEco57VOW-84" value="1" style="rounded=0;whiteSpace=wrap;html=1;" vertex="1" parent="1">
          <mxGeometry x="940" y="640" width="200" height="80" as="geometry" />
        </mxCell>
        <mxCell id="J4rkRlu3v2zTEco57VOW-85" value="1" style="rounded=0;whiteSpace=wrap;html=1;" vertex="1" parent="1">
          <mxGeometry x="940" y="730" width="200" height="80" as="geometry" />
        </mxCell>
        <mxCell id="J4rkRlu3v2zTEco57VOW-86" value="" style="rounded=0;whiteSpace=wrap;html=1;" vertex="1" parent="1">
          <mxGeometry x="940" y="820" width="200" height="80" as="geometry" />
        </mxCell>
        <mxCell id="J4rkRlu3v2zTEco57VOW-87" value="" style="rounded=0;whiteSpace=wrap;html=1;" vertex="1" parent="1">
          <mxGeometry x="940" y="910" width="200" height="80" as="geometry" />
        </mxCell>
        <mxCell id="J4rkRlu3v2zTEco57VOW-88" value="isNumberWithinRange" style="text;html=1;strokeColor=none;fillColor=none;align=center;verticalAlign=middle;whiteSpace=wrap;rounded=0;" vertex="1" parent="1">
          <mxGeometry x="960" y="600" width="150" height="40" as="geometry" />
        </mxCell>
      </root>
    </mxGraphModel>
  </diagram>
</mxfile>
